<?xml version="1.0" encoding="utf-8"?>
<!-- Generator: Adobe Illustrator 23.0.1, SVG Export Plug-In . SVG Version: 6.00 Build 0)  -->
<svg version="1.1" id="Layer_1" xmlns="http://www.w3.org/2000/svg" xmlns:xlink="http://www.w3.org/1999/xlink" x="0px" y="0px"
	 viewBox="0 0 64 64" style="enable-background:new 0 0 64 64;" xml:space="preserve">
<style type="text/css">
	.st0{fill:rgb(255, 255, 255)}
</style>
<g>
	<path class="st0" d="M63,21.7c-1-1.2-2.4-1.9-4-1.9H16.4l-4-17.1c-0.1-0.6-0.7-1-1.3-1H0v2.6h10.1l4,17.1v0v0l5,20
		c0.6,2.3,2.6,3.8,4.9,3.8l31.3,0c2.3,0,4.3-1.6,4.9-3.9l3.8-15.4C64.3,24.6,64,23,63,21.7z M61.4,25.5l-3.8,15.4
		c-0.3,1.1-1.2,1.9-2.4,1.9l-31.3,0c-1.1,0-2.1-0.7-2.4-1.8l-4.6-18.4h42c0.7,0,1.5,0.3,1.9,0.9C61.4,24,61.6,24.7,61.4,25.5z"/>
	<path class="st0" d="M51.4,49.3c-0.7,0-1.3,0.1-1.9,0.3H29.7c-0.6-0.2-1.2-0.3-1.9-0.3c-3.6,0-6.5,2.9-6.5,6.5s2.9,6.5,6.5,6.5
		s6.5-2.9,6.5-6.5c0-1.3-0.4-2.7-1.1-3.6H46c-0.7,0.9-1.1,2.2-1.1,3.6c0,3.6,2.9,6.5,6.5,6.5c3.6,0,6.5-2.9,6.5-6.5
		C58,52.2,55,49.3,51.4,49.3z M27.8,59.7c-2.2,0-3.9-1.8-3.9-3.9c0-2.2,1.8-3.9,3.9-3.9s3.9,1.8,3.9,3.9C31.7,58,30,59.7,27.8,59.7z
		 M51.4,59.7c-2.2,0-3.9-1.8-3.9-3.9c0-2.2,1.8-3.9,3.9-3.9c2.2,0,3.9,1.8,3.9,3.9C55.3,58,53.6,59.7,51.4,59.7z"/>
</g>
</svg>
